<?xml version="1.0" encoding="utf-8"?>
<!-- Generator: Adobe Illustrator 21.0.0, SVG Export Plug-In . SVG Version: 6.00 Build 0)  -->
<svg version="1.1" id="Layer_1" xmlns="http://www.w3.org/2000/svg" xmlns:xlink="http://www.w3.org/1999/xlink" x="0px" y="0px"
	 viewBox="0 0 580 525" style="enable-background:new 0 0 580 525;" xml:space="preserve">
<style type="text/css">
	.st0{filter:url(#c);}
	.st1{fill:#FFFFFF;}
	.st2{fill:#FAFAFA;stroke:#E5E9EA;}
	.st3{fill:#E5E9EA;}
	.st4{filter:url(#e);}
	.st5{filter:url(#Adobe_OpacityMaskFilter);}
	.st6{mask:url(#g);}
	.st7{fill:none;stroke:#FFFFFF;stroke-width:40;}
	.st8{fill:none;stroke:#F3603C;stroke-width:80;stroke-dasharray:502;}
	.st9{fill:none;stroke:#242D52;stroke-width:80;stroke-dasharray:340;}
	.st10{filter:url(#i);}
	.st11{fill:#F3603C;}
	.st12{fill:#FAFAFA;}
</style>
<filter  filterUnits="objectBoundingBox" height="129.8%" id="i" width="126.9%" x="-13.5%" y="-10.6%">
	<feOffset  dy="10" in="SourceAlpha" result="shadowOffsetOuter1"></feOffset>
	<feGaussianBlur  in="shadowOffsetOuter1" result="shadowBlurOuter1" stdDeviation="10"></feGaussianBlur>
	<feColorMatrix  in="shadowBlurOuter1" values="0 0 0 0 0.311765745 0 0 0 0 0.336514196 0 0 0 0 0.386011096 0 0 0 0.03 0">
		</feColorMatrix>
</filter>
<filter  filterUnits="objectBoundingBox" height="129.8%" id="e" width="126.9%" x="-13.5%" y="-10.6%">
	<feOffset  dy="10" in="SourceAlpha" result="shadowOffsetOuter1"></feOffset>
	<feGaussianBlur  in="shadowOffsetOuter1" result="shadowBlurOuter1" stdDeviation="10"></feGaussianBlur>
	<feColorMatrix  in="shadowBlurOuter1" values="0 0 0 0 0.311765745 0 0 0 0 0.336514196 0 0 0 0 0.386011096 0 0 0 0.03 0">
		</feColorMatrix>
</filter>
<filter  filterUnits="objectBoundingBox" height="129.8%" id="c" width="126.9%" x="-13.5%" y="-10.6%">
	<feOffset  dy="10" in="SourceAlpha" result="shadowOffsetOuter1"></feOffset>
	<feGaussianBlur  in="shadowOffsetOuter1" result="shadowBlurOuter1" stdDeviation="10"></feGaussianBlur>
	<feColorMatrix  in="shadowBlurOuter1" values="0 0 0 0 0.311765745 0 0 0 0 0.336514196 0 0 0 0 0.386011096 0 0 0 0.03 0">
		</feColorMatrix>
</filter>
<g transform="translate(20 10)">
	<g class="st0">
		<path id="d_2_" d="M-706-164.8h252c2.2,0,4,1.8,4,4v227c0,2.2-1.8,4-4,4h-252c-2.2,0-4-1.8-4-4v-227
			C-710-163-708.2-164.8-706-164.8z"/>
	</g>
	<g>
		<path id="d_1_" class="st1" d="M-706-164.8h252c2.2,0,4,1.8,4,4v227c0,2.2-1.8,4-4,4h-252c-2.2,0-4-1.8-4-4v-227
			C-710-163-708.2-164.8-706-164.8z"/>
	</g>
	<path class="st2" d="M-693.8-148.6h230.3V54h-230.3V-148.6z"/>
	<path class="st3" d="M-693.8-47.3h230.3v1h-230.3V-47.3z M-693.8-28.3h230.3v1h-230.3V-28.3z M-693.8-9.3h230.3v1h-230.3V-9.3z
		 M-693.8,9.7h230.3v1h-230.3V9.7z M-693.8-123.2h230.3v1h-230.3V-123.2z M-693.8-142.2h230.3v1h-230.3V-142.2z M-693.8-104.2h230.3
		v1h-230.3V-104.2z M-693.8-85.3h230.3v1h-230.3V-85.3z M-693.8-66.3h230.3v1h-230.3V-66.3z M-693.8,28.7h230.3v1h-230.3V28.7z
		 M-693.8,47.7h230.3v1h-230.3V47.7z M-710-164.8 M-710-164.8 M-710-164.8 M-710-164.8 M-710-164.8 M-710-164.8"/>
	<g>
		<path class="st3" d="M-710-164.8"/>
		<path class="st3" d="M-710-164.8"/>
	</g>
	<g transform="translate(280)">
		<g class="st4">
			<path id="f_2_" d="M-706-164.8h252c2.2,0,4,1.8,4,4v227c0,2.2-1.8,4-4,4h-252c-2.2,0-4-1.8-4-4v-227
				C-710-163-708.2-164.8-706-164.8z"/>
		</g>
		<g>
			<path id="f_1_" class="st1" d="M-706-164.8h252c2.2,0,4,1.8,4,4v227c0,2.2-1.8,4-4,4h-252c-2.2,0-4-1.8-4-4v-227
				C-710-163-708.2-164.8-706-164.8z"/>
		</g>
		<defs>
			<filter id="Adobe_OpacityMaskFilter" filterUnits="userSpaceOnUse" x="-700.7" y="-168.3" width="242.1" height="242.1">
				<feColorMatrix  type="matrix" values="1 0 0 0 0  0 1 0 0 0  0 0 1 0 0  0 0 0 1 0"/>
			</filter>
		</defs>
		<mask maskUnits="userSpaceOnUse" x="-700.7" y="-168.3" width="242.1" height="242.1" id="g">
			<g class="st5">
				<ellipse id="a" class="st1" cx="-929" cy="-93.7" rx="81" ry="81"/>
			</g>
			<g>
				<ellipse id="b" class="st1" cx="-929" cy="-93.7" rx="81" ry="81"/>
			</g>
		</mask>
		<g transform="translate(49.299 36.466)" class="st6">
			<ellipse class="st7" cx="-629" cy="-83.7" rx="61" ry="61"/>
			<g>
				<ellipse id="a_1_" class="st8" cx="-629" cy="-83.7" rx="81" ry="81"/>
			</g>
			<g>
				<ellipse id="b_1_" class="st9" cx="-629" cy="-83.7" rx="81" ry="81"/>
			</g>
		</g>
	</g>
	<g transform="translate(140 250)">
		<g class="st10">
			<path id="j_2_" d="M-706-164.8h252c2.2,0,4,1.8,4,4v227c0,2.2-1.8,4-4,4h-252c-2.2,0-4-1.8-4-4v-227
				C-710-163-708.2-164.8-706-164.8z"/>
		</g>
		<g>
			<path id="j_1_" class="st1" d="M-706-164.8h252c2.2,0,4,1.8,4,4v227c0,2.2-1.8,4-4,4h-252c-2.2,0-4-1.8-4-4v-227
				C-710-163-708.2-164.8-706-164.8z"/>
		</g>
		<g transform="translate(16.208 140.46)">
			<path class="st11" d="M-706-164.8h98c2.2,0,4,1.8,4,4v70.3c0,2.2-1.8,4-4,4h-98c-2.2,0-4-1.8-4-4v-70.3
				C-710-163-708.2-164.8-706-164.8z"/>
			<path class="st11" d="M-710-164.8"/>
		</g>
		<g transform="translate(137.766 140.46)">
			<path class="st12" d="M-706-164.8h98c2.2,0,4,1.8,4,4v70.3c0,2.2-1.8,4-4,4h-98c-2.2,0-4-1.8-4-4v-70.3
				C-710-163-708.2-164.8-706-164.8z"/>
			<path class="st12" d="M-710-164.8"/>
		</g>
		<g transform="translate(16.208 16.207)">
			<path class="st12" d="M-706-164.8h219.6c2.2,0,4,1.8,4,4v100c0,2.2-1.8,4-4,4H-706c-2.2,0-4-1.8-4-4v-100
				C-710-163-708.2-164.8-706-164.8z"/>
			<path class="st12" d="M-710-164.8"/>
		</g>
	</g>
</g>
<image style="overflow:visible;" width="1920" height="941" xlink:href="dash.png"  transform="matrix(0.5578 0 0 0.5578 0 0)">
</image>
</svg>
