<?xml version="1.0" encoding="utf-8"?>
<!-- Generator: Adobe Illustrator 21.0.0, SVG Export Plug-In . SVG Version: 6.00 Build 0)  -->
<svg version="1.1" id="Layer_1" xmlns="http://www.w3.org/2000/svg" xmlns:xlink="http://www.w3.org/1999/xlink" x="0px" y="0px"
	 viewBox="0 0 146 24" style="enable-background:new 0 0 146 24;" xml:space="preserve">
<style type="text/css">
	.st0{fill:none;}
	.st1{fill:#F3603C;}
	.st2{opacity:0.5;fill:#F3603C;enable-background:new    ;}
	.st3{fill:#E73859;}
	.st4{fill:#2A215F;}
	.st5{fill:#785898;}
	.st6{fill:#FFFFFF;}
</style>
<g>
	<path class="st0" d="M28.9-56.5"/>
	<g>
		<path class="st1" d="M31.6-46.2c1.5,0,2.8,1.3,2.8,2.9c0,1.6-1.2,2.9-2.8,2.9c-1.5,0-2.8-1.3-2.8-2.9
			C28.9-44.9,30.1-46.2,31.6-46.2z M31.6-56.5c1.5,0,2.8,1.3,2.8,2.9c0,1.6-1.2,2.9-2.8,2.9c-1.5,0-2.8-1.3-2.8-2.9
			C28.9-55.2,30.1-56.5,31.6-56.5z M41.7-56.5c1.5,0,2.8,1.3,2.8,2.9c0,1.6-1.2,2.9-2.8,2.9c-1.5,0-2.8-1.3-2.8-2.9
			C38.9-55.2,40.1-56.5,41.7-56.5z"/>
		<ellipse class="st2" cx="41.7" cy="-43.2" rx="2.8" ry="2.9"/>
	</g>
</g>
<g>
	<g>
		<path class="st3" d="M21.1-14.4C21.1-14.3,21.1-14.3,21.1-14.4c-0.2,1-0.6,1.6-1.2,2.1c-0.7,0.5-1.6,0.7-2.7,0.7
			c-0.7,0-1.4-0.1-2-0.4c-0.6-0.2-1-0.6-1.3-1c-0.3-0.4-0.4-1.2-0.4-2.3v-5.4c0-0.5,0.1-3,0-3.2c0.1,0.1,0.8,0,0.9,0
			c0.5-0.1,1-0.1,1.4-0.2c0.1,0,0.2,0,0.4,0c0.6,0,0.5,0.5,0.5,0.8c0,0.3,0,0.6,0,0.9c0,0.9,0,1.8,0,2.7c0,1,0,1.9,0,2.9
			c0,0.6,0,1.2,0,1.8c0,0.1,0,0.1,0,0.2c0,0.7,0.1,1.2,0.4,1.5c0.3,0.2,0.7,0.4,1.2,0.4c0.4,0,0.8-0.1,1.1-0.3
			c0.3-0.2,0.5-0.6,0.7-1.3c0-0.1,0.1-0.2,0.3-0.2C20.9-14.7,21.1-14.5,21.1-14.4z"/>
		<ellipse class="st4" cx="15.2" cy="-25.5" rx="1.6" ry="1"/>
	</g>
	<g>
		<path class="st4" d="M77.1-11.4c-0.6-0.1-1.1-0.3-1.7-0.6c-0.6-0.3-0.9-0.6-0.9-0.9v-17.5c0-0.2,0.1-0.3,0.3-0.5
			c0.2-0.2,0.5-0.3,0.8-0.5c0.3-0.1,0.7-0.3,1.1-0.4c0.4-0.1,0.8-0.1,1.1-0.1h11.7c0.5,0,1.1,0.1,1.8,0.2c0.7,0.1,1.2,0.3,1.6,0.4
			c1.5,0.4,2.8,0.9,3.9,1.5c1.1,0.6,1.9,1.2,2.6,1.9c0.7,0.7,1.2,1.4,1.6,2.1c0.4,0.7,0.7,1.5,0.9,2.2c0,0.1,0.1,0.3,0.1,0.5
			c0,0.2,0.1,0.4,0.1,0.4v7.2c0,1.8-1.8,3.1-5.5,3.8c-0.2,0-0.6,0.1-1.2,0.2c-0.6,0.1-0.9,0.1-1.2,0.1H77.8c0,0-0.1,0-0.3,0
			C77.3-11.4,77.2-11.4,77.1-11.4z M83.9-27.7v12.1h8.9v-1.3c0-0.6,0-1.3,0-2c0-0.7,0-1.3,0-2v-1.3c0-0.4,0-0.9-0.1-1.5
			c-0.1-0.5-0.3-1.1-0.5-1.6c-0.3-0.5-0.7-1-1.2-1.5c-0.5-0.5-1.2-0.8-2.1-1.1c-0.1,0-0.2-0.1-0.3-0.1H83.9z"/>
		<g>
			<path class="st4" d="M23.1-27.7H14v-4.2h27.6v4.2h-9.1v16.4h-9.4V-27.7z"/>
			<rect x="23.1" y="-13.1" class="st3" width="9.4" height="1.7"/>
		</g>
		<g>
			<path class="st4" d="M53.7-27.7h8.8v1.2l6-4.5c-0.6-0.2-1.4-0.4-2.2-0.6c-0.2,0-0.6-0.1-1.2-0.2c-0.6-0.1-0.9-0.1-1.2-0.1H51.5
				c-1.1,0-2,0.1-2.9,0.4c-0.9,0.3-1.7,0.6-2.3,1c-0.7,0.4-1.2,0.8-1.5,1.3c-0.4,0.5-0.5,0.9-0.5,1.4v0.1v1.5c0,0.7,0,1.4,0,2.3
				c0,0.9,0,1.8,0,2.7c0,0.9,0,1.8,0,2.7c0,0.9,0,1.6,0,2.3v1.5c0.2,0.4,0.5,0.8,0.9,1.1l8.5-6.4V-27.7z"/>
			<path class="st4" d="M62.5-23.7v8.1h-8.8v-1.5l-6.4,4.8c0.1,0,0.1,0,0.2,0.1c1.7,0.6,3.6,0.9,5.9,0.9h9.4c1.3,0,2.5-0.1,3.7-0.3
				c1.1-0.2,2.1-0.5,2.9-0.9c0.8-0.4,1.5-0.8,1.9-1.3c0.5-0.5,0.7-1.1,0.7-1.7v-12.3c0-0.8-0.4-1.5-1.1-2L62.5-23.7z"/>
			<path class="st5" d="M62.5-23.7l8.2-6.2c-0.5-0.4-1.3-0.8-2.2-1.1l-6,4.5V-23.7z"/>
			<path class="st3" d="M53.7-19.9l-8.5,6.4c0.5,0.5,1.2,0.9,2.1,1.2l6.4-4.8V-19.9z"/>
		</g>
		<g>
			<path class="st4" d="M114.2-27.7h8.8v1.2l6-4.5c-0.6-0.2-1.4-0.4-2.2-0.6c-0.2,0-0.6-0.1-1.2-0.2c-0.6-0.1-0.9-0.1-1.2-0.1h-12.5
				c-1.1,0-2,0.1-2.9,0.4c-0.9,0.3-1.7,0.6-2.3,1c-0.7,0.4-1.2,0.8-1.5,1.3c-0.4,0.5-0.5,0.9-0.5,1.4v0.1v1.5c0,0.7,0,1.4,0,2.3
				c0,0.9,0,1.8,0,2.7c0,0.9,0,1.8,0,2.7c0,0.9,0,1.6,0,2.3v1.5c0.2,0.4,0.5,0.8,0.9,1.1l8.5-6.4V-27.7z"/>
			<path class="st4" d="M123.1-23.7v8.1h-8.8v-1.5l-6.4,4.8c0.1,0,0.1,0,0.2,0.1c1.7,0.6,3.6,0.9,5.9,0.9h9.4c1.3,0,2.5-0.1,3.7-0.3
				c1.1-0.2,2.1-0.5,2.9-0.9c0.8-0.4,1.5-0.8,1.9-1.3c0.5-0.5,0.7-1.1,0.7-1.7v-12.3c0-0.8-0.4-1.5-1.1-2L123.1-23.7z"/>
			<path class="st5" d="M123.1-23.7l8.2-6.2c-0.5-0.4-1.3-0.8-2.2-1.1l-6,4.5V-23.7z"/>
			<path class="st3" d="M114.2-19.9l-8.5,6.4c0.5,0.5,1.2,0.9,2.1,1.2l6.4-4.8V-19.9z"/>
		</g>
	</g>
</g>
<path class="st3" d="M21.1,19.3C21.1,19.3,21.1,19.3,21.1,19.3c-0.2,1-0.6,1.6-1.2,2.1c-0.7,0.5-1.6,0.7-2.7,0.7
	c-0.7,0-1.4-0.1-2-0.4c-0.6-0.2-1-0.6-1.3-1c-0.3-0.4-0.4-1.2-0.4-2.3V13c0-0.5,0.1-3,0-3.2c0.1,0.1,0.8,0,0.9,0
	c0.5-0.1,1-0.1,1.4-0.2c0.1,0,0.2,0,0.4,0c0.6,0,0.5,0.5,0.5,0.8c0,0.3,0,0.6,0,0.9c0,0.9,0,1.8,0,2.7c0,1,0,1.9,0,2.9
	c0,0.6,0,1.2,0,1.8c0,0.1,0,0.1,0,0.2c0,0.7,0.1,1.2,0.4,1.5c0.3,0.2,0.7,0.4,1.2,0.4c0.4,0,0.8-0.1,1.1-0.3
	c0.3-0.2,0.5-0.6,0.7-1.3c0-0.1,0.1-0.2,0.3-0.2C20.9,19,21.1,19.1,21.1,19.3z"/>
<ellipse class="st6" cx="15.2" cy="8.1" rx="1.6" ry="1"/>
<path class="st6" d="M77.1,22.2c-0.6-0.1-1.1-0.3-1.7-0.6c-0.6-0.3-0.9-0.6-0.9-0.9V3.3c0-0.2,0.1-0.3,0.3-0.5
	c0.2-0.2,0.5-0.3,0.8-0.5c0.3-0.1,0.7-0.3,1.1-0.4c0.4-0.1,0.8-0.1,1.1-0.1h11.7c0.5,0,1.1,0.1,1.8,0.2c0.7,0.1,1.2,0.3,1.6,0.4
	c1.5,0.4,2.8,0.9,3.9,1.5c1.1,0.6,1.9,1.2,2.6,1.9c0.7,0.7,1.2,1.4,1.6,2.1c0.4,0.7,0.7,1.5,0.9,2.2c0,0.1,0.1,0.3,0.1,0.5
	c0,0.2,0.1,0.4,0.1,0.4v7.2c0,1.8-1.8,3.1-5.5,3.8c-0.2,0-0.6,0.1-1.2,0.2c-0.6,0.1-0.9,0.1-1.2,0.1H77.8c0,0-0.1,0-0.3,0
	C77.3,22.2,77.2,22.2,77.1,22.2z M83.9,5.9v12.1h8.9v-1.3c0-0.6,0-1.3,0-2c0-0.7,0-1.3,0-2v-1.3c0-0.4,0-0.9-0.1-1.5
	c-0.1-0.5-0.3-1.1-0.5-1.6c-0.3-0.5-0.7-1-1.2-1.5c-0.5-0.5-1.2-0.8-2.1-1.1c-0.1,0-0.2-0.1-0.3-0.1H83.9z"/>
<g>
	<path class="st6" d="M23.1,5.9H14V1.7h27.6v4.2h-9.1v16.4h-9.4V5.9z"/>
	<rect x="23.1" y="20.6" class="st3" width="9.4" height="1.7"/>
</g>
<path class="st6" d="M53.7,5.9h8.8v1.2l6-4.5c-0.6-0.2-1.4-0.4-2.2-0.6c-0.2,0-0.6-0.1-1.2-0.2c-0.6-0.1-0.9-0.1-1.2-0.1H51.5
	c-1.1,0-2,0.1-2.9,0.4c-0.9,0.3-1.7,0.6-2.3,1c-0.7,0.4-1.2,0.8-1.5,1.3c-0.4,0.5-0.5,0.9-0.5,1.4v0.1v1.5c0,0.7,0,1.4,0,2.3
	c0,0.9,0,1.8,0,2.7c0,0.9,0,1.8,0,2.7c0,0.9,0,1.6,0,2.3V19c0.2,0.4,0.5,0.8,0.9,1.1l8.5-6.4V5.9z"/>
<path class="st6" d="M62.5,9.9V18h-8.8v-1.5l-6.4,4.8c0.1,0,0.1,0,0.2,0.1c1.7,0.6,3.6,0.9,5.9,0.9h9.4c1.3,0,2.5-0.1,3.7-0.3
	c1.1-0.2,2.1-0.5,2.9-0.9c0.8-0.4,1.5-0.8,1.9-1.3c0.5-0.5,0.7-1.1,0.7-1.7V5.8c0-0.8-0.4-1.5-1.1-2L62.5,9.9z"/>
<path class="st5" d="M62.5,9.9l8.2-6.2c-0.5-0.4-1.3-0.8-2.2-1.1l-6,4.5V9.9z"/>
<path class="st3" d="M53.7,13.7l-8.5,6.4c0.5,0.5,1.2,0.9,2.1,1.2l6.4-4.8V13.7z"/>
<path class="st6" d="M114.2,5.9h8.8v1.2l6-4.5c-0.6-0.2-1.4-0.4-2.2-0.6c-0.2,0-0.6-0.1-1.2-0.2c-0.6-0.1-0.9-0.1-1.2-0.1h-12.5
	c-1.1,0-2,0.1-2.9,0.4c-0.9,0.3-1.7,0.6-2.3,1c-0.7,0.4-1.2,0.8-1.5,1.3c-0.4,0.5-0.5,0.9-0.5,1.4v0.1v1.5c0,0.7,0,1.4,0,2.3
	c0,0.9,0,1.8,0,2.7c0,0.9,0,1.8,0,2.7c0,0.9,0,1.6,0,2.3V19c0.2,0.4,0.5,0.8,0.9,1.1l8.5-6.4V5.9z"/>
<path class="st6" d="M123.1,9.9V18h-8.8v-1.5l-6.4,4.8c0.1,0,0.1,0,0.2,0.1c1.7,0.6,3.6,0.9,5.9,0.9h9.4c1.3,0,2.5-0.1,3.7-0.3
	c1.1-0.2,2.1-0.5,2.9-0.9c0.8-0.4,1.5-0.8,1.9-1.3c0.5-0.5,0.7-1.1,0.7-1.7V5.8c0-0.8-0.4-1.5-1.1-2L123.1,9.9z"/>
<path class="st5" d="M123.1,9.9l8.2-6.2c-0.5-0.4-1.3-0.8-2.2-1.1l-6,4.5V9.9z"/>
<path class="st3" d="M114.2,13.7l-8.5,6.4c0.5,0.5,1.2,0.9,2.1,1.2l6.4-4.8V13.7z"/>
</svg>
